<svg width="451" height="248" viewBox="0 0 451 248" fill="none" xmlns="http://www.w3.org/2000/svg">
<rect x="0.5" y="0.5" width="450" height="247" rx="4.5" stroke="#9747FF" stroke-dasharray="10 5"/>
<rect x="54.5" y="22.5" width="315" height="51" rx="25.5" stroke="#351C0F" stroke-width="5"/>
<path d="M133.915 53.264L126.259 48.464V47.096L133.939 42.272L134.995 43.952L128.779 47.768L134.995 51.56L133.915 53.264ZM152.141 56.192C151.165 56.192 150.237 56.168 149.357 56.12C148.493 56.072 147.805 56.016 147.293 55.952V39.248C147.853 39.184 148.549 39.128 149.381 39.08C150.213 39.032 151.165 39.008 152.237 39.008C154.285 39.008 155.861 39.4 156.965 40.184C158.069 40.952 158.621 42 158.621 43.328C158.621 44.208 158.381 44.96 157.901 45.584C157.437 46.192 156.757 46.696 155.861 47.096C156.949 47.48 157.773 48.016 158.333 48.704C158.893 49.376 159.173 50.208 159.173 51.2C159.173 52.72 158.573 53.936 157.373 54.848C156.173 55.744 154.429 56.192 152.141 56.192ZM149.573 46.448H152.213C153.477 46.448 154.477 46.184 155.213 45.656C155.965 45.128 156.341 44.448 156.341 43.616C156.341 42.72 155.973 42.04 155.237 41.576C154.501 41.096 153.493 40.856 152.213 40.856C151.685 40.856 151.205 40.872 150.773 40.904C150.341 40.92 149.941 40.944 149.573 40.976V46.448ZM152.309 54.296C153.733 54.296 154.845 54.04 155.645 53.528C156.445 53.016 156.845 52.272 156.845 51.296C156.845 50.336 156.453 49.584 155.669 49.04C154.885 48.496 153.765 48.224 152.309 48.224H149.573V54.152C150.421 54.248 151.333 54.296 152.309 54.296ZM166.946 56.288C165.906 56.288 164.962 56.024 164.114 55.496C163.266 54.968 162.586 54.224 162.074 53.264C161.578 52.288 161.33 51.144 161.33 49.832C161.33 48.584 161.578 47.464 162.074 46.472C162.586 45.48 163.282 44.696 164.162 44.12C165.058 43.528 166.082 43.232 167.234 43.232C167.954 43.232 168.602 43.36 169.178 43.616C169.77 43.856 170.282 44.16 170.714 44.528V43.52H172.682V52.976C172.682 53.584 172.826 53.984 173.114 54.176C173.418 54.352 173.746 54.44 174.098 54.44L173.642 56.12C172.106 56.12 171.178 55.496 170.858 54.248C170.49 54.76 169.986 55.232 169.346 55.664C168.722 56.08 167.922 56.288 166.946 56.288ZM167.426 54.368C168.034 54.368 168.61 54.224 169.154 53.936C169.698 53.632 170.154 53.256 170.522 52.808V46.112C170.09 45.808 169.61 45.568 169.082 45.392C168.57 45.2 168.026 45.104 167.45 45.104C166.682 45.104 166.002 45.304 165.41 45.704C164.834 46.088 164.378 46.632 164.042 47.336C163.706 48.024 163.538 48.832 163.538 49.76C163.538 50.656 163.706 51.456 164.042 52.16C164.378 52.848 164.842 53.392 165.434 53.792C166.026 54.176 166.69 54.368 167.426 54.368ZM181.788 56.288C180.604 56.288 179.564 56.016 178.668 55.472C177.788 54.912 177.108 54.144 176.628 53.168C176.148 52.176 175.908 51.04 175.908 49.76C175.908 48.56 176.148 47.464 176.628 46.472C177.124 45.48 177.828 44.696 178.74 44.12C179.652 43.528 180.724 43.232 181.956 43.232C182.66 43.232 183.276 43.296 183.804 43.424C184.348 43.552 184.868 43.736 185.364 43.976L184.716 45.8C184.268 45.576 183.836 45.416 183.42 45.32C183.02 45.208 182.572 45.152 182.076 45.152C180.956 45.152 180.012 45.56 179.244 46.376C178.492 47.176 178.116 48.288 178.116 49.712C178.116 50.576 178.276 51.36 178.596 52.064C178.916 52.768 179.356 53.328 179.916 53.744C180.492 54.16 181.164 54.368 181.932 54.368C182.54 54.368 183.06 54.304 183.492 54.176C183.924 54.032 184.388 53.832 184.884 53.576L185.556 55.4C185.06 55.672 184.5 55.888 183.876 56.048C183.268 56.208 182.572 56.288 181.788 56.288ZM196.684 56.24L190.228 49.592V56H188.068V38.24H190.228V48.392L195.868 43.28L197.116 44.648L192.292 48.92L198.172 54.8L196.684 56.24ZM211.89 56.288C210.69 56.288 209.738 55.896 209.034 55.112C208.346 54.312 208.002 53.176 208.002 51.704V45.848H205.842V43.976H208.05L208.506 40.04H210.162V43.976H213.618V45.848H210.162V51.872C210.162 52.8 210.354 53.448 210.738 53.816C211.138 54.184 211.61 54.368 212.154 54.368C212.554 54.368 212.93 54.304 213.282 54.176C213.65 54.048 213.986 53.896 214.29 53.72L214.89 55.448C214.57 55.64 214.138 55.824 213.594 56C213.05 56.192 212.482 56.288 211.89 56.288ZM221.848 56.288C220.664 56.288 219.6 56.016 218.656 55.472C217.712 54.912 216.968 54.144 216.424 53.168C215.896 52.176 215.632 51.04 215.632 49.76C215.632 48.416 215.904 47.256 216.448 46.28C216.992 45.304 217.736 44.552 218.68 44.024C219.624 43.496 220.68 43.232 221.848 43.232C223.016 43.232 224.064 43.496 224.992 44.024C225.936 44.552 226.68 45.304 227.224 46.28C227.784 47.24 228.064 48.384 228.064 49.712C228.064 51.04 227.792 52.2 227.248 53.192C226.704 54.168 225.96 54.928 225.016 55.472C224.088 56.016 223.032 56.288 221.848 56.288ZM221.848 54.368C223.112 54.368 224.096 53.944 224.8 53.096C225.504 52.232 225.856 51.12 225.856 49.76C225.856 48.928 225.68 48.168 225.328 47.48C224.976 46.776 224.496 46.216 223.888 45.8C223.296 45.368 222.616 45.152 221.848 45.152C220.584 45.152 219.6 45.568 218.896 46.4C218.192 47.232 217.84 48.336 217.84 49.712C217.84 50.544 218.016 51.32 218.368 52.04C218.72 52.744 219.192 53.312 219.784 53.744C220.392 54.16 221.08 54.368 221.848 54.368ZM245.331 56.288C244.083 56.288 242.971 56.064 241.995 55.616C241.019 55.152 240.187 54.528 239.499 53.744C238.827 52.944 238.307 52.016 237.939 50.96C237.587 49.904 237.411 48.776 237.411 47.576C237.411 45.928 237.723 44.456 238.347 43.16C238.987 41.848 239.899 40.816 241.083 40.064C242.267 39.296 243.683 38.912 245.331 38.912C246.563 38.912 247.667 39.136 248.643 39.584C249.635 40.032 250.475 40.656 251.163 41.456C251.851 42.256 252.371 43.176 252.723 44.216C253.091 45.256 253.275 46.376 253.275 47.576C253.275 48.776 253.091 49.904 252.723 50.96C252.371 52.016 251.851 52.944 251.163 53.744C250.475 54.528 249.643 55.152 248.667 55.616C247.691 56.064 246.579 56.288 245.331 56.288ZM245.331 54.32C246.563 54.32 247.595 54.024 248.427 53.432C249.259 52.84 249.883 52.04 250.299 51.032C250.731 50.008 250.947 48.856 250.947 47.576C250.947 46.712 250.819 45.88 250.563 45.08C250.307 44.28 249.939 43.568 249.459 42.944C248.979 42.304 248.387 41.8 247.683 41.432C246.995 41.064 246.211 40.88 245.331 40.88C244.163 40.88 243.155 41.176 242.307 41.768C241.475 42.36 240.835 43.16 240.387 44.168C239.955 45.176 239.739 46.312 239.739 47.576C239.739 48.44 239.859 49.28 240.099 50.096C240.355 50.896 240.723 51.616 241.203 52.256C241.683 52.896 242.267 53.4 242.955 53.768C243.659 54.136 244.451 54.32 245.331 54.32ZM256.389 56V43.52H258.477V46.232C258.685 45.704 258.965 45.216 259.317 44.768C259.669 44.304 260.109 43.936 260.637 43.664C261.165 43.376 261.781 43.232 262.485 43.232C262.725 43.232 262.965 43.248 263.205 43.28C263.445 43.296 263.645 43.328 263.805 43.376L263.157 45.608C262.853 45.48 262.493 45.416 262.077 45.416C261.485 45.416 260.917 45.584 260.373 45.92C259.845 46.256 259.405 46.776 259.053 47.48C258.717 48.184 258.549 49.08 258.549 50.168V56H256.389ZM269.976 56.288C268.952 56.288 268.016 56.024 267.168 55.496C266.32 54.968 265.648 54.224 265.152 53.264C264.656 52.288 264.408 51.144 264.408 49.832C264.408 48.568 264.656 47.44 265.152 46.448C265.664 45.456 266.336 44.672 267.168 44.096C268.016 43.52 268.944 43.232 269.952 43.232C270.784 43.232 271.496 43.4 272.088 43.736C272.696 44.072 273.168 44.416 273.504 44.768V38.24H275.664V52.976C275.664 53.584 275.808 53.984 276.096 54.176C276.4 54.352 276.728 54.44 277.08 54.44L276.624 56.12C275.104 56.12 274.176 55.512 273.84 54.296C273.488 54.792 272.992 55.248 272.352 55.664C271.728 56.08 270.936 56.288 269.976 56.288ZM270.456 54.368C271.048 54.368 271.608 54.232 272.136 53.96C272.68 53.672 273.136 53.304 273.504 52.856V46.664C273.2 46.28 272.776 45.928 272.232 45.608C271.688 45.272 271.088 45.104 270.432 45.104C269.664 45.104 268.992 45.312 268.416 45.728C267.84 46.144 267.392 46.704 267.072 47.408C266.768 48.096 266.616 48.88 266.616 49.76C266.616 50.64 266.784 51.432 267.12 52.136C267.456 52.824 267.912 53.368 268.488 53.768C269.08 54.168 269.736 54.368 270.456 54.368ZM284.725 56.288C282.933 56.288 281.509 55.72 280.453 54.584C279.413 53.432 278.893 51.824 278.893 49.76C278.893 48.512 279.125 47.4 279.589 46.424C280.069 45.432 280.733 44.656 281.581 44.096C282.429 43.52 283.413 43.232 284.533 43.232C285.733 43.232 286.725 43.496 287.509 44.024C288.309 44.536 288.909 45.232 289.309 46.112C289.709 46.992 289.909 47.96 289.909 49.016C289.909 49.576 289.885 50.12 289.837 50.648H281.101C281.245 51.816 281.653 52.728 282.325 53.384C282.997 54.04 283.885 54.368 284.989 54.368C285.709 54.368 286.357 54.296 286.933 54.152C287.509 53.992 288.061 53.792 288.589 53.552L289.093 55.4C288.517 55.656 287.869 55.864 287.149 56.024C286.429 56.2 285.621 56.288 284.725 56.288ZM281.077 48.896H287.917C287.917 47.68 287.613 46.744 287.005 46.088C286.397 45.432 285.557 45.104 284.485 45.104C283.557 45.104 282.789 45.432 282.181 46.088C281.573 46.728 281.205 47.664 281.077 48.896ZM292.787 56V43.52H294.875V46.232C295.083 45.704 295.363 45.216 295.715 44.768C296.067 44.304 296.507 43.936 297.035 43.664C297.563 43.376 298.179 43.232 298.883 43.232C299.123 43.232 299.363 43.248 299.603 43.28C299.843 43.296 300.043 43.328 300.203 43.376L299.555 45.608C299.251 45.48 298.891 45.416 298.475 45.416C297.883 45.416 297.315 45.584 296.771 45.92C296.243 46.256 295.803 46.776 295.451 47.48C295.115 48.184 294.947 49.08 294.947 50.168V56H292.787Z" fill="#351C0F"/>
<rect x="52" y="96" width="320" height="56" rx="28" fill="#351C0F"/>
<rect x="54.5" y="98.5" width="315" height="51" rx="25.5" stroke="black" stroke-opacity="0.25" stroke-width="5"/>
<path d="M133.915 129.264L126.259 124.464V123.096L133.939 118.272L134.995 119.952L128.779 123.768L134.995 127.56L133.915 129.264ZM152.141 132.192C151.165 132.192 150.237 132.168 149.357 132.12C148.493 132.072 147.805 132.016 147.293 131.952V115.248C147.853 115.184 148.549 115.128 149.381 115.08C150.213 115.032 151.165 115.008 152.237 115.008C154.285 115.008 155.861 115.4 156.965 116.184C158.069 116.952 158.621 118 158.621 119.328C158.621 120.208 158.381 120.96 157.901 121.584C157.437 122.192 156.757 122.696 155.861 123.096C156.949 123.48 157.773 124.016 158.333 124.704C158.893 125.376 159.173 126.208 159.173 127.2C159.173 128.72 158.573 129.936 157.373 130.848C156.173 131.744 154.429 132.192 152.141 132.192ZM149.573 122.448H152.213C153.477 122.448 154.477 122.184 155.213 121.656C155.965 121.128 156.341 120.448 156.341 119.616C156.341 118.72 155.973 118.04 155.237 117.576C154.501 117.096 153.493 116.856 152.213 116.856C151.685 116.856 151.205 116.872 150.773 116.904C150.341 116.92 149.941 116.944 149.573 116.976V122.448ZM152.309 130.296C153.733 130.296 154.845 130.04 155.645 129.528C156.445 129.016 156.845 128.272 156.845 127.296C156.845 126.336 156.453 125.584 155.669 125.04C154.885 124.496 153.765 124.224 152.309 124.224H149.573V130.152C150.421 130.248 151.333 130.296 152.309 130.296ZM166.946 132.288C165.906 132.288 164.962 132.024 164.114 131.496C163.266 130.968 162.586 130.224 162.074 129.264C161.578 128.288 161.33 127.144 161.33 125.832C161.33 124.584 161.578 123.464 162.074 122.472C162.586 121.48 163.282 120.696 164.162 120.12C165.058 119.528 166.082 119.232 167.234 119.232C167.954 119.232 168.602 119.36 169.178 119.616C169.77 119.856 170.282 120.16 170.714 120.528V119.52H172.682V128.976C172.682 129.584 172.826 129.984 173.114 130.176C173.418 130.352 173.746 130.44 174.098 130.44L173.642 132.12C172.106 132.12 171.178 131.496 170.858 130.248C170.49 130.76 169.986 131.232 169.346 131.664C168.722 132.08 167.922 132.288 166.946 132.288ZM167.426 130.368C168.034 130.368 168.61 130.224 169.154 129.936C169.698 129.632 170.154 129.256 170.522 128.808V122.112C170.09 121.808 169.61 121.568 169.082 121.392C168.57 121.2 168.026 121.104 167.45 121.104C166.682 121.104 166.002 121.304 165.41 121.704C164.834 122.088 164.378 122.632 164.042 123.336C163.706 124.024 163.538 124.832 163.538 125.76C163.538 126.656 163.706 127.456 164.042 128.16C164.378 128.848 164.842 129.392 165.434 129.792C166.026 130.176 166.69 130.368 167.426 130.368ZM181.788 132.288C180.604 132.288 179.564 132.016 178.668 131.472C177.788 130.912 177.108 130.144 176.628 129.168C176.148 128.176 175.908 127.04 175.908 125.76C175.908 124.56 176.148 123.464 176.628 122.472C177.124 121.48 177.828 120.696 178.74 120.12C179.652 119.528 180.724 119.232 181.956 119.232C182.66 119.232 183.276 119.296 183.804 119.424C184.348 119.552 184.868 119.736 185.364 119.976L184.716 121.8C184.268 121.576 183.836 121.416 183.42 121.32C183.02 121.208 182.572 121.152 182.076 121.152C180.956 121.152 180.012 121.56 179.244 122.376C178.492 123.176 178.116 124.288 178.116 125.712C178.116 126.576 178.276 127.36 178.596 128.064C178.916 128.768 179.356 129.328 179.916 129.744C180.492 130.16 181.164 130.368 181.932 130.368C182.54 130.368 183.06 130.304 183.492 130.176C183.924 130.032 184.388 129.832 184.884 129.576L185.556 131.4C185.06 131.672 184.5 131.888 183.876 132.048C183.268 132.208 182.572 132.288 181.788 132.288ZM196.684 132.24L190.228 125.592V132H188.068V114.24H190.228V124.392L195.868 119.28L197.116 120.648L192.292 124.92L198.172 130.8L196.684 132.24ZM211.89 132.288C210.69 132.288 209.738 131.896 209.034 131.112C208.346 130.312 208.002 129.176 208.002 127.704V121.848H205.842V119.976H208.05L208.506 116.04H210.162V119.976H213.618V121.848H210.162V127.872C210.162 128.8 210.354 129.448 210.738 129.816C211.138 130.184 211.61 130.368 212.154 130.368C212.554 130.368 212.93 130.304 213.282 130.176C213.65 130.048 213.986 129.896 214.29 129.72L214.89 131.448C214.57 131.64 214.138 131.824 213.594 132C213.05 132.192 212.482 132.288 211.89 132.288ZM221.848 132.288C220.664 132.288 219.6 132.016 218.656 131.472C217.712 130.912 216.968 130.144 216.424 129.168C215.896 128.176 215.632 127.04 215.632 125.76C215.632 124.416 215.904 123.256 216.448 122.28C216.992 121.304 217.736 120.552 218.68 120.024C219.624 119.496 220.68 119.232 221.848 119.232C223.016 119.232 224.064 119.496 224.992 120.024C225.936 120.552 226.68 121.304 227.224 122.28C227.784 123.24 228.064 124.384 228.064 125.712C228.064 127.04 227.792 128.2 227.248 129.192C226.704 130.168 225.96 130.928 225.016 131.472C224.088 132.016 223.032 132.288 221.848 132.288ZM221.848 130.368C223.112 130.368 224.096 129.944 224.8 129.096C225.504 128.232 225.856 127.12 225.856 125.76C225.856 124.928 225.68 124.168 225.328 123.48C224.976 122.776 224.496 122.216 223.888 121.8C223.296 121.368 222.616 121.152 221.848 121.152C220.584 121.152 219.6 121.568 218.896 122.4C218.192 123.232 217.84 124.336 217.84 125.712C217.84 126.544 218.016 127.32 218.368 128.04C218.72 128.744 219.192 129.312 219.784 129.744C220.392 130.16 221.08 130.368 221.848 130.368ZM245.331 132.288C244.083 132.288 242.971 132.064 241.995 131.616C241.019 131.152 240.187 130.528 239.499 129.744C238.827 128.944 238.307 128.016 237.939 126.96C237.587 125.904 237.411 124.776 237.411 123.576C237.411 121.928 237.723 120.456 238.347 119.16C238.987 117.848 239.899 116.816 241.083 116.064C242.267 115.296 243.683 114.912 245.331 114.912C246.563 114.912 247.667 115.136 248.643 115.584C249.635 116.032 250.475 116.656 251.163 117.456C251.851 118.256 252.371 119.176 252.723 120.216C253.091 121.256 253.275 122.376 253.275 123.576C253.275 124.776 253.091 125.904 252.723 126.96C252.371 128.016 251.851 128.944 251.163 129.744C250.475 130.528 249.643 131.152 248.667 131.616C247.691 132.064 246.579 132.288 245.331 132.288ZM245.331 130.32C246.563 130.32 247.595 130.024 248.427 129.432C249.259 128.84 249.883 128.04 250.299 127.032C250.731 126.008 250.947 124.856 250.947 123.576C250.947 122.712 250.819 121.88 250.563 121.08C250.307 120.28 249.939 119.568 249.459 118.944C248.979 118.304 248.387 117.8 247.683 117.432C246.995 117.064 246.211 116.88 245.331 116.88C244.163 116.88 243.155 117.176 242.307 117.768C241.475 118.36 240.835 119.16 240.387 120.168C239.955 121.176 239.739 122.312 239.739 123.576C239.739 124.44 239.859 125.28 240.099 126.096C240.355 126.896 240.723 127.616 241.203 128.256C241.683 128.896 242.267 129.4 242.955 129.768C243.659 130.136 244.451 130.32 245.331 130.32ZM256.389 132V119.52H258.477V122.232C258.685 121.704 258.965 121.216 259.317 120.768C259.669 120.304 260.109 119.936 260.637 119.664C261.165 119.376 261.781 119.232 262.485 119.232C262.725 119.232 262.965 119.248 263.205 119.28C263.445 119.296 263.645 119.328 263.805 119.376L263.157 121.608C262.853 121.48 262.493 121.416 262.077 121.416C261.485 121.416 260.917 121.584 260.373 121.92C259.845 122.256 259.405 122.776 259.053 123.48C258.717 124.184 258.549 125.08 258.549 126.168V132H256.389ZM269.976 132.288C268.952 132.288 268.016 132.024 267.168 131.496C266.32 130.968 265.648 130.224 265.152 129.264C264.656 128.288 264.408 127.144 264.408 125.832C264.408 124.568 264.656 123.44 265.152 122.448C265.664 121.456 266.336 120.672 267.168 120.096C268.016 119.52 268.944 119.232 269.952 119.232C270.784 119.232 271.496 119.4 272.088 119.736C272.696 120.072 273.168 120.416 273.504 120.768V114.24H275.664V128.976C275.664 129.584 275.808 129.984 276.096 130.176C276.4 130.352 276.728 130.44 277.08 130.44L276.624 132.12C275.104 132.12 274.176 131.512 273.84 130.296C273.488 130.792 272.992 131.248 272.352 131.664C271.728 132.08 270.936 132.288 269.976 132.288ZM270.456 130.368C271.048 130.368 271.608 130.232 272.136 129.96C272.68 129.672 273.136 129.304 273.504 128.856V122.664C273.2 122.28 272.776 121.928 272.232 121.608C271.688 121.272 271.088 121.104 270.432 121.104C269.664 121.104 268.992 121.312 268.416 121.728C267.84 122.144 267.392 122.704 267.072 123.408C266.768 124.096 266.616 124.88 266.616 125.76C266.616 126.64 266.784 127.432 267.12 128.136C267.456 128.824 267.912 129.368 268.488 129.768C269.08 130.168 269.736 130.368 270.456 130.368ZM284.725 132.288C282.933 132.288 281.509 131.72 280.453 130.584C279.413 129.432 278.893 127.824 278.893 125.76C278.893 124.512 279.125 123.4 279.589 122.424C280.069 121.432 280.733 120.656 281.581 120.096C282.429 119.52 283.413 119.232 284.533 119.232C285.733 119.232 286.725 119.496 287.509 120.024C288.309 120.536 288.909 121.232 289.309 122.112C289.709 122.992 289.909 123.96 289.909 125.016C289.909 125.576 289.885 126.12 289.837 126.648H281.101C281.245 127.816 281.653 128.728 282.325 129.384C282.997 130.04 283.885 130.368 284.989 130.368C285.709 130.368 286.357 130.296 286.933 130.152C287.509 129.992 288.061 129.792 288.589 129.552L289.093 131.4C288.517 131.656 287.869 131.864 287.149 132.024C286.429 132.2 285.621 132.288 284.725 132.288ZM281.077 124.896H287.917C287.917 123.68 287.613 122.744 287.005 122.088C286.397 121.432 285.557 121.104 284.485 121.104C283.557 121.104 282.789 121.432 282.181 122.088C281.573 122.728 281.205 123.664 281.077 124.896ZM292.787 132V119.52H294.875V122.232C295.083 121.704 295.363 121.216 295.715 120.768C296.067 120.304 296.507 119.936 297.035 119.664C297.563 119.376 298.179 119.232 298.883 119.232C299.123 119.232 299.363 119.248 299.603 119.28C299.843 119.296 300.043 119.328 300.203 119.376L299.555 121.608C299.251 121.48 298.891 121.416 298.475 121.416C297.883 121.416 297.315 121.584 296.771 121.92C296.243 122.256 295.803 122.776 295.451 123.48C295.115 124.184 294.947 125.08 294.947 126.168V132H292.787Z" fill="white"/>
</svg>
